# xmcd
#
# Track frame offsets:
#	150
#	13102
#	15344
#	24251
#	42096
#	51978
#	60820
#	65765
#	73271
#	79677
#	101877
#	110109
#	112726
#	133258
#	140587
#	146271
#	151743
#	181476
#
# Disc length: 2766 seconds
#
# Revision: 1
# Processed by: cddbd v1.4b41PL1 Copyright (c) Steve Scherf et al.
# Submitted via: audiograbber 1.80
#
DISCID=f30acc12
DTITLE=Steam - Steam - Hamam - The Turkish Bath
DYEAR=1900
DGENRE=
TTITLE0=Hamam
TTITLE1=Ilk Uyko
TTITLE2=Mahalle
TTITLE3=Gece Ziyareti
TTITLE4=Iptal
TTITLE5=Dunya
TTITLE6=Gizli Zaman
TTITLE7=Bu Aksam Butun Meyhanelerini Dolastim Istanbulun
TTITLE8=Ikinci Mektup
TTITLE9=Disiu
TTITLE10=Hamam (Bosphorous Version)
TTITLE11=Omuzdaki El
TTITLE12=Tavla
TTITLE13=Hastane
TTITLE14=Francesco Nun Sonu
TTITLE15=Sadaka
TTITLE16=Istanbul Uyurken (Hamam)
TTITLE17=Istanbul Uyurken (Hamam Trance Version)
EXTD=
EXTT0=
EXTT1=
EXTT2=
EXTT3=
EXTT4=
EXTT5=
EXTT6=
EXTT7=
EXTT8=
EXTT9=
EXTT10=
EXTT11=
EXTT12=
EXTT13=
EXTT14=
EXTT15=
EXTT16=
EXTT17=
PLAYORDER=
